<svg width="300" height="115" viewBox="0 0 300 115" fill="none" xmlns="http://www.w3.org/2000/svg">
<path d="M1.38037 79.0783L35.5406 63.5254V85.3282H9.27928V79.0783H1.38037Z" fill="#002737"/>
<ellipse cx="3.70819" cy="82.9917" rx="2.38739" ry="5.45069" fill="#002737"/>
<ellipse cx="3.3104" cy="82.9916" rx="1.1937" ry="3.11468" fill="white"/>
<path d="M35.5398 12.9118H27.5818L1.32049 48.7305H2.11629L26.786 17.5837L26.7861 65.0825L0.52512 77.5413C0.52512 77.5413 -0.312055 78.2792 0.127452 78.7093C0.566959 79.1393 1.32049 79.0986 1.32049 79.0986C1.32049 79.0986 32.3566 65.4719 33.9482 65.0825C35.5398 64.6932 36.3356 66.6399 36.3356 66.6399L37.1314 76.7626C37.1314 76.7626 38.1441 81.4371 38.723 82.2143C39.3829 83.1003 41.1104 83.7716 41.1104 83.7716H92.4393C92.4393 83.7716 93.8612 83.0139 94.4288 82.2143C94.9894 81.4245 95.2246 79.8783 95.2246 79.8783V42.5021C95.2246 42.5021 94.8267 34.326 94.4288 33.158C94.0309 31.9901 93.4454 30.8711 92.4393 29.654C91.1877 28.1402 88.4603 26.5393 88.4603 26.5393C88.4603 26.5393 88.4603 24.9819 87.6645 23.0352C86.8687 21.0886 85.8 19.6938 84.0834 17.9739C80.5873 14.4709 75.5815 13.6522 71.3506 12.5232C66.4698 11.2208 64.4441 11.1025 59.4137 10.576C52.6153 9.86447 46.6809 10.1879 43.0998 10.5765C39.5188 10.965 35.5398 12.9118 35.5398 12.9118Z" fill="#002737"/>
<ellipse cx="50.2627" cy="88.0531" rx="49.7373" ry="1.94668" fill="#002737"/>
<path fill-rule="evenodd" clip-rule="evenodd" d="M3.7085 88.4434C5.02702 88.4434 6.09589 86.003 6.09589 82.9927C6.09589 79.9823 5.02702 77.542 3.7085 77.542H6.89139H6.89175C8.21027 77.542 9.27914 79.9823 9.27914 82.9927C9.27914 86.003 8.21027 88.4434 6.89175 88.4434H6.89139H3.7085Z" fill="#002737"/>
<ellipse cx="6.89154" cy="82.2137" rx="2.38739" ry="6.22936" fill="#002737"/>
<path fill-rule="evenodd" clip-rule="evenodd" d="M6.89209 88.4421C8.21036 88.4414 9.27895 85.6527 9.27895 82.2128C9.27895 78.7728 8.21036 75.9842 6.89209 75.9834H11.6667H11.6669C12.9853 75.9837 14.0541 78.7725 14.0541 82.2128C14.0541 85.653 12.9853 88.4419 11.6669 88.4421H11.6667H6.89209Z" fill="#002737"/>
<ellipse cx="20.4205" cy="79.4879" rx="3.18319" ry="8.95471" fill="#002737"/>
<path fill-rule="evenodd" clip-rule="evenodd" d="M20.4204 88.4426C22.1784 88.4426 23.6036 84.4334 23.6036 79.4879C23.6036 74.5424 22.1784 70.5333 20.4204 70.5332H28.3783H28.3784C30.1364 70.5334 31.5615 74.5425 31.5615 79.4879C31.5615 84.4333 30.1364 88.4424 28.3784 88.4426H28.3783H20.4204Z" fill="#002737"/>
<ellipse cx="33.9487" cy="76.3731" rx="3.97899" ry="12.0694" fill="#002737"/>
<path fill-rule="evenodd" clip-rule="evenodd" d="M33.949 88.4425C36.1465 88.4424 37.9279 83.0388 37.9279 76.3731C37.9279 69.7074 36.1465 64.3038 33.949 64.3037H43.4985H43.4987C45.6962 64.3037 47.4777 69.7074 47.4777 76.3731C47.4777 83.0388 45.6962 88.4425 43.4987 88.4425H43.4985H33.949Z" fill="#002737"/>
<ellipse cx="6.49374" cy="82.6026" rx="1.1937" ry="3.50402" fill="white"/>
<ellipse cx="20.0227" cy="79.8774" rx="1.98949" ry="5.45069" fill="white"/>
<ellipse cx="33.9489" cy="77.1523" rx="2.38739" ry="7.39737" fill="white"/>
<ellipse cx="73.7388" cy="76.3731" rx="3.97899" ry="12.0694" fill="#002737"/>
<path fill-rule="evenodd" clip-rule="evenodd" d="M73.7388 88.4425C75.9362 88.4423 77.7176 83.0387 77.7176 76.3731C77.7176 69.7075 75.9362 64.3039 73.7388 64.3037H83.2883H83.2884C85.4859 64.3037 87.2674 69.7074 87.2674 76.3731C87.2674 83.0388 85.4859 88.4425 83.2884 88.4425H83.2883H73.7388Z" fill="#002737"/>
<ellipse cx="73.739" cy="77.1523" rx="2.38739" ry="7.39737" fill="white"/>
<path d="M31.1633 18.3632V62.358C31.1633 62.358 32.5084 61.1824 33.5507 61.19C34.3875 61.1962 34.9448 61.3934 35.5402 61.9687C36.1357 62.544 36.336 63.5261 36.336 63.5261L37.9276 79.8781C37.9276 79.8781 38.1446 81.437 38.7234 82.2141C39.3834 83.1002 41.1108 83.7715 41.1108 83.7715H92.4397C92.4397 83.7715 93.8616 83.0137 94.4292 82.2141C94.9898 81.4243 95.225 79.8781 95.225 79.8781V42.502C95.225 42.502 94.8271 34.3258 94.4292 33.1579C94.0313 31.99 93.4459 30.8709 92.4397 29.6539C91.1882 28.1401 88.4607 26.5392 88.4607 26.5392C88.4607 26.5392 88.4607 24.9818 87.6649 23.0351C86.8691 21.0884 85.8004 19.6937 84.0838 17.9738C80.5877 14.4708 75.582 13.652 71.3511 12.5231C66.4702 11.2207 64.4445 11.1024 59.4141 10.5759C52.6158 9.86433 49.8239 9.75396 43.1003 10.5763C39.9171 10.9656 37.3195 11.7596 34.7444 13.691C32.6226 15.2824 31.1633 18.3632 31.1633 18.3632Z" fill="#002737"/>
<rect x="91.2461" y="31.5996" width="6.36638" height="13.2374" rx="2" fill="#002737"/>
<path d="M31.1633 18.3675V62.3624C31.1633 62.3624 32.5084 61.1867 33.5507 61.1944C34.3875 61.2005 34.9448 61.3978 35.5402 61.9731C36.1357 62.5483 36.336 63.5304 36.336 63.5304L37.5297 75.9883C37.5297 75.9883 37.7467 77.5472 38.3255 78.3243C38.9855 79.2104 41.1108 79.8816 41.1108 79.8816L92.0418 79.8826C92.0418 79.8826 93.8616 79.5134 94.4292 78.7138C94.9898 77.924 95.225 76.7671 95.225 76.7671V42.5063C95.225 42.5063 95.8588 36.5462 94.4292 33.1622C93.7363 31.522 93.2355 30.4317 92.0418 29.2637C91.0705 28.3134 89.999 27.3985 88.4607 26.5384C82.8901 23.4237 60.3804 23.0344 58.6183 23.0344C57.2447 23.0344 44.294 23.0344 43.4982 22.2557C42.7024 21.477 52.0721 21.0877 53.4456 21.0877C56.6288 21.0877 70.5553 21.8663 71.3511 21.8663C72.5448 21.8663 82.8901 23.4237 81.6964 22.645C80.5028 21.8663 77.3196 21.0877 75.3301 20.6983C73.3406 20.309 58.6183 19.141 58.6183 19.141C58.6183 19.141 49.4667 19.1453 49.0688 18.3623C48.6709 17.5794 56.565 17.5354 60.6078 17.5837C66.2208 17.6507 74.5343 18.7517 74.9322 18.7517C75.3301 18.7517 80.5028 19.5346 81.2985 19.141C82.0943 18.7474 78.5523 16.9583 76.5238 16.0263C74.6106 15.1474 73.3888 15.0179 71.3511 14.469C66.9148 13.2739 64.9847 12.9114 59.812 12.1373C53.0535 11.1258 51.8541 11.3541 45.0898 11.3572C41.8818 11.3587 37.3195 11.7639 34.7444 13.6953C32.6226 15.2867 31.1633 18.3675 31.1633 18.3675Z" fill="white"/>
<path d="M42.7005 25.3682C43.0984 24.981 61.7996 25.7551 67.3702 26.1469C72.9408 26.5387 77.3177 26.928 80.8988 27.3149C84.4799 27.7018 86.0715 28.0985 87.2652 28.4854C88.4589 28.8722 88.5573 28.9166 89.6525 29.6509C90.9145 30.4969 91.2961 31.1782 92.0399 32.3762C93.0604 34.02 93.6315 35.125 93.6315 37.0483C93.6315 38.6081 93.6315 40.9441 94.4273 42.499C94.5665 42.7709 95.2231 42.499 95.2231 42.499C95.2231 42.499 95.2231 63.9148 95.2231 65.8591C95.2231 66.7192 94.5111 67.2927 93.6315 67.4164C90.8462 67.8082 55.0337 67.4164 49.8627 67.4164C44.6916 67.4164 40.3137 64.3042 41.1089 64.3017C41.9041 64.2993 84.082 64.3017 84.082 64.3017C84.082 64.3017 85.4553 61.0167 86.4694 58.8535C87.6604 56.3127 88.0609 54.9601 89.2546 52.2348C90.7288 48.8691 91.2442 44.4481 90.4484 42.8883C89.5598 41.1466 47.4753 41.7181 46.6795 41.7203C45.8837 41.7224 45.3343 41.4641 44.69 40.9416C43.9924 40.3759 43.8942 40.1651 43.4963 38.9949C43.0984 37.8248 42.3026 25.7554 42.7005 25.3682Z" fill="#002737"/>
<path d="M65.0001 27C60.2995 26.5727 44.0001 26.5 44.0001 26.5C44.0001 26.5 43.5497 33.8741 45.0001 37.5C45.3244 38.3108 45.5001 39 46.0001 39.5C46.5001 40 47.1265 40 47.9997 40H68.9997C77.6001 40 85.0003 40.5 89.5 41C91.8288 41.2588 91.8077 37.1995 90.9997 35C90.3264 33.1671 89.4903 32.2613 87.9997 31C84.6666 28.1797 70.5001 27.5 65.0001 27Z" fill="white"/>
<path d="M82.4926 62.747H57.8229L56.6292 60.4109H83.2884L82.4926 62.747Z" fill="#002737"/>
<path d="M84.0842 58.4643L55.4355 58.0749L54.2418 55.3496L84.88 55.7389L84.0842 58.4643Z" fill="#002737"/>
<path d="M85.6758 53.7922L53.0481 53.4029L51.8544 50.2882L86.4716 51.0669L85.6758 53.7922Z" fill="#002737"/>
<path d="M88.0632 46.3949L87.2674 49.5096L51.0586 48.7309L49.467 45.6162L88.0632 46.3949Z" fill="#002737"/>
<path d="M44.2952 47.1739C46.284 50.6774 51.4574 58.8539 51.4574 58.8539C51.4574 58.8539 44.6924 51.4561 44.2952 51.0672C43.898 50.6784 44.1183 51.8454 44.2952 52.6246C44.446 53.2884 44.7462 53.5916 45.091 54.1819C45.862 55.502 47.4762 56.9063 47.8752 57.2961C48.2742 57.6859 46.2836 57.6854 45.4878 57.2961C44.692 56.9068 45.4878 58.4641 46.2836 59.2428C47.0794 60.0214 49.07 61.19 49.07 61.19C49.07 61.19 48.0952 61.2654 47.4784 61.19C46.5032 61.0707 45.9202 60.9277 45.0911 60.4114C44.3495 59.9496 43.9714 59.1904 43.4995 58.4647C42.9718 57.6534 42.305 55.7392 42.3054 54.1807L42.3054 54.1575C42.3057 52.8081 42.3072 46.7822 42.7036 46.3952C43.1956 45.915 43.9578 46.5795 44.2952 47.1739Z" fill="#002737"/>
<rect x="29.9697" y="27.7061" width="7.16217" height="14.0161" rx="2" fill="#002737"/>
<path d="M34.7441 26.1406C35.6313 25.5948 39.5189 25.7512 39.5189 25.7512V26.5299C39.5189 26.5299 36.3357 26.5301 35.5399 26.9192C35.1468 27.1115 34.939 27.3125 34.7441 27.6979C34.3463 28.4847 34.7441 38.9968 34.7441 41.714C34.7441 42.144 35.1004 42.4882 35.5399 42.4926C36.3362 42.5008 37.5299 42.5008 38.7231 42.4926C39.1626 42.4897 39.5188 42.8413 39.5189 43.2713C39.5194 44.8368 39.5189 46.386 39.5189 46.386H37.9273C37.9273 46.386 38.2092 44.3334 37.9278 44.0581C37.5299 43.6688 36.3362 44.0446 35.5399 44.05C34.3467 44.0581 33.1521 43.0041 33.1525 41.714C33.153 40.1648 32.7547 28.4847 33.1525 27.6979C33.5423 26.927 34 26.5984 34.7441 26.1406Z" fill="#002737"/>
<path d="M40.3152 39.3872C39.9171 37.8303 39.5432 29.6533 40.3152 30.8218C40.6925 31.3929 40.8911 31.7342 41.1109 32.3792C41.9068 34.7147 42.3044 40.1659 41.9068 40.1659C41.2119 40.1659 40.4839 40.0469 40.3152 39.3872Z" fill="#002737"/>
<path d="M93.6333 55.7408C93.1435 56.2232 92.7298 56.81 92.0418 56.9062C91.7342 56.9492 91.246 56.9114 91.2459 56.5195C91.2459 56.1275 91.2068 55.4321 91.2459 54.9621C91.2851 54.4921 91.7313 53.0639 92.0417 51.8474C92.4397 50.288 92.5258 50.7656 92.8375 51.0688C93.2328 51.4532 93.4106 51.974 93.6288 52.6128L93.6333 52.6261C94.0313 53.7915 94.0313 55.3488 93.6333 55.7408Z" fill="white"/>
<path d="M92.0421 58.8535C92.6317 58.6612 93.2607 58.3669 93.6337 58.8535C93.9134 59.2184 94.0657 59.5664 94.0317 60.0213C93.9739 60.7945 93.5608 61.2611 93.2358 61.9682C92.9171 62.6615 92.7205 63.155 92.0421 63.5255C91.228 63.9701 90.0716 64.3415 89.6547 63.5255C89.4462 63.1175 89.5917 62.8095 89.6547 62.3575C89.7677 61.5462 89.9934 61.0966 90.4505 60.4108C90.9307 59.6904 91.2082 59.1255 92.0421 58.8535Z" fill="white"/>
<path d="M84.0839 72.8695C84.0839 73.2588 78.9112 79.8775 78.518 79.8711C78.1247 79.8647 42.2006 79.8711 41.1155 79.8711C39.9399 79.8711 39.0001 79 38.7281 78.7023C38.4562 78.4045 37.5344 75.9769 37.5344 75.9769L37.9323 79.8711C37.9323 79.8711 38.1493 81.43 38.7281 82.2071C39.3881 83.0932 41.1155 83.7645 41.1155 83.7645H92.4444C92.4444 83.7645 93.8663 83.0067 94.4339 82.2071C94.9945 81.4173 95.2297 79.8711 95.2297 79.8711V72.473C95.2297 72.473 95.2251 71.6944 94.8272 70.9157C94.4293 70.137 94.0314 69.7548 92.8377 69.7548L85.6755 69.755C85.6755 69.755 77.7175 69.7553 75.728 69.7552C73.7385 69.7551 70.1574 69.7557 67.7701 69.7548C62.7661 69.7528 60.21 69.7548 58.6184 69.7548C56.2983 69.7548 61.0058 77.1522 62.5974 77.1522C67.7701 77.1522 75.3301 77.1522 76.5238 77.1494C78.302 77.1452 82.4923 70.9228 83.2881 70.9228C84.8797 70.9228 84.0839 72.4802 84.0839 72.8695Z" fill="#002737"/>
<path d="M76.5235 74.4255C75.3302 74.8149 67.3722 74.815 67.3718 74.4255C67.3715 74.0361 75.7281 72.8697 77.3193 72.8682C78.9105 72.8666 77.7168 74.0361 76.5235 74.4255Z" fill="white"/>
<path d="M92.0418 73.6484C91.6023 73.2183 91.0062 73.3764 90.4502 73.6484C89.5712 74.0784 90.4475 75.4164 89.6544 75.9844C89.1375 76.3546 88.6122 76.6962 88.0629 76.3737C87.3966 75.9826 88.6695 74.9019 88.0629 74.427C87.5775 74.0471 87.0272 74.155 86.4713 74.427C85.5922 74.8571 85.4767 76.3737 85.6755 76.763C85.7761 76.9603 85.9725 77.4442 86.4713 77.5417C87.0426 77.6534 88.063 77.9307 90.4502 77.5417C91.5556 77.3616 91.9826 75.4808 92.0418 75.2057C92.1699 74.6106 92.4813 74.0784 92.0418 73.6484Z" fill="white"/>
<path d="M55.0383 75.9814C55.0383 76.7416 53.7702 76.2638 53.0488 75.9814C52.3275 75.6991 52.445 73.8232 51.4573 72.8665C51.0586 72.4804 50.6607 72.4804 49.8657 72.8665C48.7179 73.4239 50.5249 74.9063 49.8656 75.9814C49.0662 77.2852 46.9196 77.1173 45.8867 75.9814C42.7028 72.4804 43.1044 71.7015 43.499 71.313C44.2929 70.5313 51.7481 70.0485 53.4468 71.7004C54.8796 73.0937 55.0384 74.8132 55.0383 75.9814Z" fill="#002737"/>
<ellipse cx="3.75" cy="82" rx="1.25" ry="2.5" fill="#002737"/>
<ellipse cx="6.75" cy="81" rx="1.25" ry="2.5" fill="#002737"/>
<ellipse cx="20.75" cy="79.5" rx="2.75" ry="3.5" fill="#002737"/>
<ellipse cx="34" cy="76.5" rx="3" ry="4.5" fill="#002737"/>
<path d="M9 79.5V81L16.5 79V77L9 79.5Z" fill="white"/>
<path d="M16.5 73V75.5L9 78V76L16.5 73Z" fill="white"/>
<path d="M23 75.5V77.5L30 75.5V73L23 75.5Z" fill="white"/>
<path d="M23 69.5V73L30 70.5V66.5L23 69.5Z" fill="white"/>
<path d="M136.831 45L129.249 35.0028H128.307V45H121.594V20.2727H128.307V29.5938H129.176L136.276 20.2727H144.727L135.31 32.1534L145.259 45H136.831ZM153.484 45H146.24L154.401 20.2727H163.578L171.74 45H164.495L159.086 27.0824H158.893L153.484 45ZM152.132 35.2443H165.751V40.267H152.132V35.2443ZM174.121 45V20.2727H184.794C186.63 20.2727 188.235 20.6349 189.612 21.3594C190.988 22.0838 192.059 23.102 192.824 24.4141C193.588 25.7261 193.971 27.2595 193.971 29.0142C193.971 30.785 193.576 32.3184 192.787 33.6143C192.007 34.9103 190.908 35.9084 189.491 36.6087C188.083 37.3089 186.436 37.6591 184.553 37.6591H178.178V32.4432H183.201C183.989 32.4432 184.662 32.3063 185.217 32.0327C185.78 31.7509 186.211 31.3525 186.509 30.8374C186.815 30.3222 186.968 29.7145 186.968 29.0142C186.968 28.3059 186.815 27.7022 186.509 27.2031C186.211 26.696 185.78 26.3097 185.217 26.044C184.662 25.7704 183.989 25.6335 183.201 25.6335H180.834V45H174.121ZM211.671 45L204.088 35.0028H203.147V45H196.434V20.2727H203.147V29.5938H204.016L211.115 20.2727H219.567L210.15 32.1534L220.098 45H211.671ZM244.294 32.6364C244.294 35.3892 243.759 37.7114 242.689 39.603C241.618 41.4865 240.173 42.9152 238.354 43.8892C236.535 44.8551 234.507 45.3381 232.269 45.3381C230.015 45.3381 227.979 44.8511 226.159 43.8771C224.348 42.8951 222.908 41.4624 221.837 39.5788C220.775 37.6873 220.243 35.3731 220.243 32.6364C220.243 29.8835 220.775 27.5653 221.837 25.6818C222.908 23.7902 224.348 22.3615 226.159 21.3956C227.979 20.4216 230.015 19.9347 232.269 19.9347C234.507 19.9347 236.535 20.4216 238.354 21.3956C240.173 22.3615 241.618 23.7902 242.689 25.6818C243.759 27.5653 244.294 29.8835 244.294 32.6364ZM237.388 32.6364C237.388 31.1553 237.191 29.9077 236.797 28.8935C236.41 27.8712 235.835 27.0985 235.07 26.5753C234.313 26.044 233.38 25.7784 232.269 25.7784C231.158 25.7784 230.22 26.044 229.456 26.5753C228.699 27.0985 228.123 27.8712 227.729 28.8935C227.343 29.9077 227.15 31.1553 227.15 32.6364C227.15 34.1174 227.343 35.3691 227.729 36.3913C228.123 37.4055 228.699 38.1783 229.456 38.7095C230.22 39.2327 231.158 39.4943 232.269 39.4943C233.38 39.4943 234.313 39.2327 235.07 38.7095C235.835 38.1783 236.41 37.4055 236.797 36.3913C237.191 35.3691 237.388 34.1174 237.388 32.6364ZM247.4 20.2727H255.756L261.503 34.2784H261.792L267.54 20.2727H275.895V45H269.327V30.7045H269.133L263.628 44.8068H259.667L254.162 30.608H253.969V45H247.4V20.2727ZM144.679 64.5455H137.869C137.821 63.982 137.692 63.4709 137.483 63.0121C137.282 62.5533 137 62.1589 136.638 61.8288C136.284 61.4908 135.853 61.2332 135.346 61.0561C134.839 60.871 134.263 60.7784 133.619 60.7784C132.492 60.7784 131.539 61.0521 130.758 61.5994C129.985 62.1468 129.397 62.9316 128.995 63.9538C128.601 64.9761 128.403 66.2036 128.403 67.6364C128.403 69.1496 128.605 70.4174 129.007 71.4396C129.418 72.4538 130.009 73.2185 130.782 73.7337C131.555 74.2408 132.484 74.4943 133.571 74.4943C134.191 74.4943 134.746 74.4179 135.237 74.2649C135.728 74.1039 136.155 73.8745 136.517 73.5767C136.879 73.2789 137.173 72.9207 137.398 72.5021C137.632 72.0755 137.789 71.5966 137.869 71.0653L144.679 71.1136C144.598 72.16 144.305 73.2266 143.798 74.3132C143.29 75.3918 142.57 76.3899 141.636 77.3075C140.711 78.2171 139.564 78.9496 138.195 79.505C136.827 80.0604 135.237 80.3381 133.426 80.3381C131.156 80.3381 129.12 79.8511 127.317 78.8771C125.522 77.9032 124.101 76.4704 123.055 74.5788C122.016 72.6873 121.497 70.3731 121.497 67.6364C121.497 64.8835 122.028 62.5653 123.091 60.6818C124.153 58.7902 125.586 57.3615 127.389 56.3956C129.192 55.4216 131.205 54.9347 133.426 54.9347C134.988 54.9347 136.424 55.148 137.737 55.5746C139.049 56.0012 140.2 56.625 141.19 57.446C142.18 58.259 142.977 59.2611 143.58 60.4524C144.184 61.6437 144.55 63.008 144.679 64.5455ZM147.725 80V55.2727H165.546V60.6818H154.438V64.9318H164.628V70.3409H154.438V74.5909H165.497V80H147.725ZM168.875 80V55.2727H179.548C181.384 55.2727 182.989 55.6349 184.366 56.3594C185.742 57.0838 186.813 58.102 187.577 59.4141C188.342 60.7261 188.724 62.2595 188.724 64.0142C188.724 65.785 188.33 67.3184 187.541 68.6143C186.76 69.9103 185.662 70.9084 184.245 71.6087C182.836 72.3089 181.19 72.6591 179.307 72.6591H172.932V67.4432H177.955C178.743 67.4432 179.415 67.3063 179.971 67.0327C180.534 66.7509 180.965 66.3525 181.263 65.8374C181.569 65.3222 181.722 64.7145 181.722 64.0142C181.722 63.3059 181.569 62.7022 181.263 62.2031C180.965 61.696 180.534 61.3097 179.971 61.044C179.415 60.7704 178.743 60.6335 177.955 60.6335H175.588V80H168.875ZM191.188 80V55.2727H201.909C203.793 55.2727 205.374 55.5263 206.654 56.0334C207.942 56.5405 208.912 57.2569 209.564 58.1825C210.224 59.1082 210.554 60.1989 210.554 61.4545C210.554 62.3641 210.353 63.1932 209.95 63.9418C209.556 64.6903 209 65.3182 208.284 65.8253C207.568 66.3243 206.731 66.6705 205.773 66.8636V67.1051C206.835 67.1454 207.801 67.415 208.67 67.9141C209.54 68.4051 210.232 69.0852 210.747 69.9545C211.262 70.8158 211.52 71.83 211.52 72.9972C211.52 74.3494 211.166 75.5528 210.457 76.6072C209.757 77.6617 208.759 78.4908 207.463 79.0945C206.167 79.6982 204.622 80 202.827 80H191.188ZM197.901 74.6392H201.04C202.167 74.6392 203.012 74.4299 203.575 74.0114C204.139 73.5848 204.42 72.9569 204.42 72.1278C204.42 71.5483 204.288 71.0573 204.022 70.6548C203.756 70.2524 203.378 69.9465 202.887 69.7372C202.404 69.5279 201.821 69.4233 201.136 69.4233H197.901V74.6392ZM197.901 65.2699H200.653C201.241 65.2699 201.76 65.1773 202.211 64.9922C202.662 64.8071 203.012 64.5414 203.261 64.1953C203.519 63.8411 203.648 63.4105 203.648 62.9034C203.648 62.1387 203.374 61.5552 202.827 61.1527C202.279 60.7422 201.587 60.5369 200.75 60.5369H197.901V65.2699ZM213.898 55.2727H220.612V68.2159H220.805L229.594 55.2727H235.293V80H228.58V67.0085H228.435L219.501 80H213.898V55.2727ZM261.554 64.5455H254.744C254.696 63.982 254.567 63.4709 254.358 63.0121C254.157 62.5533 253.875 62.1589 253.513 61.8288C253.159 61.4908 252.728 61.2332 252.221 61.0561C251.714 60.871 251.138 60.7784 250.494 60.7784C249.367 60.7784 248.414 61.0521 247.633 61.5994C246.86 62.1468 246.272 62.9316 245.87 63.9538C245.476 64.9761 245.278 66.2036 245.278 67.6364C245.278 69.1496 245.48 70.4174 245.882 71.4396C246.293 72.4538 246.884 73.2185 247.657 73.7337C248.43 74.2408 249.359 74.4943 250.446 74.4943C251.066 74.4943 251.621 74.4179 252.112 74.2649C252.603 74.1039 253.03 73.8745 253.392 73.5767C253.754 73.2789 254.048 72.9207 254.273 72.5021C254.507 72.0755 254.664 71.5966 254.744 71.0653L261.554 71.1136C261.473 72.16 261.18 73.2266 260.673 74.3132C260.165 75.3918 259.445 76.3899 258.511 77.3075C257.586 78.2171 256.439 78.9496 255.07 79.505C253.702 80.0604 252.112 80.3381 250.301 80.3381C248.031 80.3381 245.995 79.8511 244.192 78.8771C242.397 77.9032 240.976 76.4704 239.93 74.5788C238.891 72.6873 238.372 70.3731 238.372 67.6364C238.372 64.8835 238.903 62.5653 239.966 60.6818C241.028 58.7902 242.461 57.3615 244.264 56.3956C246.067 55.4216 248.08 54.9347 250.301 54.9347C251.863 54.9347 253.299 55.148 254.612 55.5746C255.924 56.0012 257.075 56.625 258.065 57.446C259.055 58.259 259.852 59.2611 260.455 60.4524C261.059 61.6437 261.425 63.008 261.554 64.5455Z" fill="#002737"/>
<path d="M9.29528 100.912V99.8182H16.9316V100.912H13.7299V110H12.497V100.912H9.29528ZM22.2301 110V103.438H20.2017C19.7443 103.438 19.3847 103.544 19.1229 103.756C18.861 103.968 18.7301 104.259 18.7301 104.631C18.7301 104.995 18.8478 105.282 19.0831 105.491C19.3217 105.7 19.6482 105.804 20.0625 105.804H22.5284V106.898H20.0625C19.5455 106.898 19.0997 106.807 18.7251 106.624C18.3506 106.442 18.0623 106.182 17.8601 105.844C17.6579 105.502 17.5568 105.098 17.5568 104.631C17.5568 104.16 17.6629 103.756 17.875 103.418C18.0871 103.08 18.3904 102.819 18.7848 102.637C19.1825 102.455 19.6548 102.364 20.2017 102.364H23.3438V110H22.2301ZM17.1392 110L19.3068 106.202H20.5795L18.4119 110H17.1392ZM30.2108 102.364V103.457H26.671V110H25.4977V102.364H30.2108ZM33.7741 110.179C33.2902 110.179 32.8511 110.088 32.4567 109.906C32.0623 109.72 31.7491 109.453 31.517 109.105C31.285 108.754 31.169 108.33 31.169 107.832C31.169 107.395 31.2552 107.04 31.4276 106.768C31.5999 106.493 31.8303 106.278 32.1186 106.122C32.407 105.966 32.7251 105.85 33.0732 105.774C33.4245 105.695 33.7775 105.632 34.1321 105.585C34.5961 105.526 34.9723 105.481 35.2607 105.451C35.5523 105.418 35.7644 105.363 35.897 105.287C36.0329 105.211 36.1009 105.078 36.1009 104.889V104.849C36.1009 104.359 35.9666 103.978 35.6982 103.706C35.433 103.434 35.0303 103.298 34.4901 103.298C33.9299 103.298 33.4908 103.421 33.1726 103.666C32.8544 103.911 32.6307 104.173 32.5014 104.452L31.3878 104.054C31.5866 103.59 31.8518 103.229 32.1832 102.97C32.518 102.708 32.8826 102.526 33.277 102.423C33.6747 102.317 34.0658 102.264 34.4503 102.264C34.6955 102.264 34.9773 102.294 35.2955 102.354C35.617 102.41 35.9268 102.528 36.2251 102.707C36.5268 102.886 36.777 103.156 36.9759 103.517C37.1747 103.878 37.2741 104.362 37.2741 104.969V110H36.1009V108.966H36.0412C35.9616 109.132 35.8291 109.309 35.6435 109.498C35.4579 109.687 35.2109 109.848 34.9027 109.98C34.5945 110.113 34.2183 110.179 33.7741 110.179ZM33.9531 109.125C34.4171 109.125 34.8082 109.034 35.1264 108.852C35.4479 108.669 35.6899 108.434 35.8523 108.146C36.018 107.857 36.1009 107.554 36.1009 107.236V106.162C36.0511 106.222 35.9418 106.276 35.7727 106.326C35.607 106.372 35.4148 106.414 35.196 106.45C34.9806 106.483 34.7701 106.513 34.5646 106.54C34.3625 106.563 34.1984 106.583 34.0724 106.599C33.7675 106.639 33.4825 106.704 33.2173 106.793C32.9555 106.879 32.7434 107.01 32.581 107.186C32.4219 107.358 32.3423 107.594 32.3423 107.892C32.3423 108.3 32.4931 108.608 32.7947 108.817C33.0997 109.022 33.4858 109.125 33.9531 109.125ZM45.302 102.364V110H44.1287V102.364H45.302ZM44.8446 106.003V107.097C44.5795 107.196 44.316 107.284 44.0542 107.36C43.7923 107.433 43.5172 107.491 43.2289 107.534C42.9405 107.574 42.624 107.594 42.2793 107.594C41.4142 107.594 40.7199 107.36 40.1962 106.893C39.6758 106.425 39.4157 105.724 39.4157 104.79V102.344H40.589V104.79C40.589 105.181 40.6635 105.502 40.8127 105.754C40.9618 106.006 41.164 106.193 41.4192 106.316C41.6744 106.439 41.9611 106.5 42.2793 106.5C42.7765 106.5 43.2256 106.455 43.6266 106.366C44.031 106.273 44.437 106.152 44.8446 106.003ZM48.628 108.27L52.307 102.364H53.6593V110H52.486V104.094L48.8269 110H47.4547V102.364H48.628V108.27ZM60.919 108.27L64.598 102.364H65.9503V110H64.777V104.094L61.1179 110H59.7457V102.364H60.919V108.27ZM72.0368 110V102.364H78.0424V110H76.8691V103.457H73.21V110H72.0368ZM83.2875 110.159C82.5981 110.159 81.9932 109.995 81.4728 109.667C80.9558 109.339 80.5514 108.88 80.2598 108.29C79.9714 107.7 79.8272 107.01 79.8272 106.222C79.8272 105.426 79.9714 104.732 80.2598 104.138C80.5514 103.545 80.9558 103.085 81.4728 102.756C81.9932 102.428 82.5981 102.264 83.2875 102.264C83.9769 102.264 84.5801 102.428 85.0971 102.756C85.6175 103.085 86.0218 103.545 86.3102 104.138C86.6019 104.732 86.7477 105.426 86.7477 106.222C86.7477 107.01 86.6019 107.7 86.3102 108.29C86.0218 108.88 85.6175 109.339 85.0971 109.667C84.5801 109.995 83.9769 110.159 83.2875 110.159ZM83.2875 109.105C83.8111 109.105 84.242 108.971 84.5801 108.702C84.9181 108.434 85.1684 108.081 85.3308 107.643C85.4932 107.206 85.5744 106.732 85.5744 106.222C85.5744 105.711 85.4932 105.236 85.3308 104.795C85.1684 104.354 84.9181 103.998 84.5801 103.726C84.242 103.454 83.8111 103.318 83.2875 103.318C82.7638 103.318 82.3329 103.454 81.9949 103.726C81.6568 103.998 81.4065 104.354 81.2441 104.795C81.0817 105.236 81.0005 105.711 81.0005 106.222C81.0005 106.732 81.0817 107.206 81.2441 107.643C81.4065 108.081 81.6568 108.434 81.9949 108.702C82.3329 108.971 82.7638 109.105 83.2875 109.105ZM87.8626 110V108.906H88.141C88.3697 108.906 88.5603 108.862 88.7127 108.772C88.8652 108.679 88.9878 108.518 89.0806 108.29C89.1767 108.058 89.2496 107.736 89.2994 107.325C89.3524 106.911 89.3905 106.384 89.4137 105.744L89.5529 102.364H94.6438V110H93.4705V103.457H90.6665L90.5472 106.182C90.5207 106.808 90.4644 107.36 90.3782 107.837C90.2953 108.311 90.1677 108.709 89.9954 109.031C89.8263 109.352 89.601 109.594 89.3192 109.756C89.0375 109.919 88.6845 110 88.2603 110H87.8626ZM97.2788 112.864C97.0799 112.864 96.9026 112.847 96.7468 112.814C96.591 112.784 96.4833 112.754 96.4237 112.724L96.7219 111.69C97.007 111.763 97.2589 111.79 97.4776 111.77C97.6964 111.75 97.8903 111.652 98.0593 111.477C98.2317 111.304 98.3891 111.024 98.5316 110.636L98.7504 110.04L95.9265 102.364H97.1992L99.3072 108.449H99.3867L101.495 102.364H102.767L99.5259 111.114C99.3801 111.508 99.1995 111.835 98.984 112.093C98.7686 112.355 98.5183 112.549 98.2333 112.675C97.9516 112.801 97.6334 112.864 97.2788 112.864ZM104.316 110V102.364H110.322V110H109.148V103.457H105.489V110H104.316ZM112.464 112.864V102.364H113.598V103.577H113.737C113.823 103.444 113.943 103.275 114.095 103.07C114.251 102.861 114.473 102.675 114.761 102.513C115.053 102.347 115.447 102.264 115.945 102.264C116.588 102.264 117.154 102.425 117.645 102.746C118.135 103.068 118.518 103.524 118.793 104.114C119.068 104.704 119.206 105.4 119.206 106.202C119.206 107.01 119.068 107.711 118.793 108.305C118.518 108.895 118.137 109.352 117.65 109.677C117.163 109.998 116.601 110.159 115.964 110.159C115.474 110.159 115.081 110.078 114.786 109.915C114.491 109.75 114.264 109.562 114.105 109.354C113.946 109.142 113.823 108.966 113.737 108.827H113.638V112.864H112.464ZM113.618 106.182C113.618 106.759 113.702 107.267 113.871 107.708C114.04 108.146 114.287 108.489 114.612 108.737C114.937 108.982 115.335 109.105 115.805 109.105C116.296 109.105 116.705 108.976 117.033 108.717C117.365 108.455 117.613 108.104 117.779 107.663C117.948 107.219 118.033 106.725 118.033 106.182C118.033 105.645 117.95 105.161 117.784 104.73C117.622 104.296 117.375 103.953 117.043 103.701C116.715 103.446 116.303 103.318 115.805 103.318C115.328 103.318 114.927 103.439 114.602 103.681C114.277 103.92 114.032 104.254 113.866 104.685C113.701 105.113 113.618 105.612 113.618 106.182ZM122.169 108.27L125.848 102.364H127.2V110H126.027V104.094L122.368 110H120.996V102.364H122.169V108.27ZM135.355 102.364V108.906H136.429V112.466H135.256V110H129.349V102.364H130.523V108.906H134.182V102.364H135.355ZM141.356 110.159C140.62 110.159 139.985 109.997 139.452 109.672C138.921 109.344 138.512 108.886 138.224 108.3C137.939 107.71 137.796 107.024 137.796 106.241C137.796 105.459 137.939 104.77 138.224 104.173C138.512 103.573 138.913 103.106 139.427 102.771C139.944 102.433 140.547 102.264 141.236 102.264C141.634 102.264 142.027 102.33 142.415 102.463C142.802 102.596 143.155 102.811 143.474 103.109C143.792 103.404 144.045 103.795 144.234 104.283C144.423 104.77 144.518 105.37 144.518 106.082V106.58H138.631V105.565H143.324C143.324 105.134 143.238 104.75 143.066 104.412C142.897 104.074 142.655 103.807 142.34 103.612C142.028 103.416 141.661 103.318 141.236 103.318C140.769 103.318 140.365 103.434 140.023 103.666C139.685 103.895 139.425 104.193 139.243 104.561C139.06 104.929 138.969 105.323 138.969 105.744V106.42C138.969 106.997 139.069 107.486 139.268 107.887C139.47 108.285 139.75 108.588 140.108 108.797C140.466 109.002 140.882 109.105 141.356 109.105C141.664 109.105 141.942 109.062 142.191 108.976C142.443 108.886 142.66 108.754 142.842 108.578C143.024 108.399 143.165 108.177 143.265 107.912L144.398 108.23C144.279 108.615 144.078 108.953 143.797 109.244C143.515 109.533 143.167 109.758 142.753 109.92C142.338 110.08 141.873 110.159 141.356 110.159ZM146.302 110V102.364H152.308V110H151.135V103.457H147.476V110H146.302ZM155.465 105.128H157.653C158.547 105.128 159.232 105.355 159.706 105.809C160.18 106.263 160.417 106.838 160.417 107.534C160.417 107.991 160.311 108.407 160.099 108.782C159.886 109.153 159.575 109.45 159.164 109.672C158.753 109.891 158.249 110 157.653 110H154.451V102.364H155.624V108.906H157.653C158.117 108.906 158.498 108.784 158.796 108.538C159.094 108.293 159.243 107.978 159.243 107.594C159.243 107.189 159.094 106.86 158.796 106.604C158.498 106.349 158.117 106.222 157.653 106.222H155.465V105.128ZM161.63 110V102.364H162.803V110H161.63ZM171.991 110.159C171.301 110.159 170.696 109.995 170.176 109.667C169.659 109.339 169.255 108.88 168.963 108.29C168.675 107.7 168.53 107.01 168.53 106.222C168.53 105.426 168.675 104.732 168.963 104.138C169.255 103.545 169.659 103.085 170.176 102.756C170.696 102.428 171.301 102.264 171.991 102.264C172.68 102.264 173.283 102.428 173.8 102.756C174.321 103.085 174.725 103.545 175.013 104.138C175.305 104.732 175.451 105.426 175.451 106.222C175.451 107.01 175.305 107.7 175.013 108.29C174.725 108.88 174.321 109.339 173.8 109.667C173.283 109.995 172.68 110.159 171.991 110.159ZM171.991 109.105C172.514 109.105 172.945 108.971 173.283 108.702C173.621 108.434 173.872 108.081 174.034 107.643C174.196 107.206 174.278 106.732 174.278 106.222C174.278 105.711 174.196 105.236 174.034 104.795C173.872 104.354 173.621 103.998 173.283 103.726C172.945 103.454 172.514 103.318 171.991 103.318C171.467 103.318 171.036 103.454 170.698 103.726C170.36 103.998 170.11 104.354 169.947 104.795C169.785 105.236 169.704 105.711 169.704 106.222C169.704 106.732 169.785 107.206 169.947 107.643C170.11 108.081 170.36 108.434 170.698 108.702C171.036 108.971 171.467 109.105 171.991 109.105ZM176.244 103.457V102.364H182.448V103.457H179.943V110H178.769V103.457H176.244ZM188.097 110V102.364H194.103V110H192.93V103.457H189.271V110H188.097ZM196.246 112.864V102.364H197.379V103.577H197.518C197.605 103.444 197.724 103.275 197.876 103.07C198.032 102.861 198.254 102.675 198.543 102.513C198.834 102.347 199.229 102.264 199.726 102.264C200.369 102.264 200.936 102.425 201.426 102.746C201.917 103.068 202.299 103.524 202.575 104.114C202.85 104.704 202.987 105.4 202.987 106.202C202.987 107.01 202.85 107.711 202.575 108.305C202.299 108.895 201.918 109.352 201.431 109.677C200.944 109.998 200.382 110.159 199.746 110.159C199.255 110.159 198.862 110.078 198.567 109.915C198.272 109.75 198.045 109.562 197.886 109.354C197.727 109.142 197.605 108.966 197.518 108.827H197.419V112.864H196.246ZM197.399 106.182C197.399 106.759 197.484 107.267 197.653 107.708C197.822 108.146 198.069 108.489 198.393 108.737C198.718 108.982 199.116 109.105 199.587 109.105C200.077 109.105 200.487 108.976 200.815 108.717C201.146 108.455 201.395 108.104 201.56 107.663C201.729 107.219 201.814 106.725 201.814 106.182C201.814 105.645 201.731 105.161 201.565 104.73C201.403 104.296 201.156 103.953 200.825 103.701C200.496 103.446 200.084 103.318 199.587 103.318C199.109 103.318 198.708 103.439 198.384 103.681C198.059 103.92 197.813 104.254 197.648 104.685C197.482 105.113 197.399 105.612 197.399 106.182ZM207.879 110.159C207.19 110.159 206.585 109.995 206.065 109.667C205.548 109.339 205.143 108.88 204.852 108.29C204.563 107.7 204.419 107.01 204.419 106.222C204.419 105.426 204.563 104.732 204.852 104.138C205.143 103.545 205.548 103.085 206.065 102.756C206.585 102.428 207.19 102.264 207.879 102.264C208.569 102.264 209.172 102.428 209.689 102.756C210.209 103.085 210.614 103.545 210.902 104.138C211.194 104.732 211.339 105.426 211.339 106.222C211.339 107.01 211.194 107.7 210.902 108.29C210.614 108.88 210.209 109.339 209.689 109.667C209.172 109.995 208.569 110.159 207.879 110.159ZM207.879 109.105C208.403 109.105 208.834 108.971 209.172 108.702C209.51 108.434 209.76 108.081 209.923 107.643C210.085 107.206 210.166 106.732 210.166 106.222C210.166 105.711 210.085 105.236 209.923 104.795C209.76 104.354 209.51 103.998 209.172 103.726C208.834 103.454 208.403 103.318 207.879 103.318C207.356 103.318 206.925 103.454 206.587 103.726C206.249 103.998 205.998 104.354 205.836 104.795C205.674 105.236 205.592 105.711 205.592 106.222C205.592 106.732 205.674 107.206 205.836 107.643C205.998 108.081 206.249 108.434 206.587 108.702C206.925 108.971 207.356 109.105 207.879 109.105ZM214.304 108.27L217.983 102.364H219.335V110H218.162V104.094L214.503 110H213.131V102.364H214.304V108.27ZM221.007 108.051H222.26C222.286 108.396 222.442 108.658 222.727 108.837C223.015 109.016 223.39 109.105 223.85 109.105C224.321 109.105 224.724 109.009 225.059 108.817C225.393 108.621 225.561 108.306 225.561 107.872C225.561 107.617 225.498 107.395 225.372 107.206C225.246 107.014 225.069 106.865 224.84 106.759C224.611 106.652 224.341 106.599 224.029 106.599H222.717V105.545H224.029C224.497 105.545 224.842 105.439 225.064 105.227C225.289 105.015 225.402 104.75 225.402 104.432C225.402 104.09 225.281 103.817 225.039 103.612C224.797 103.403 224.454 103.298 224.01 103.298C223.562 103.298 223.189 103.399 222.891 103.602C222.593 103.8 222.435 104.057 222.419 104.372H221.186C221.199 103.961 221.325 103.598 221.564 103.283C221.802 102.965 222.127 102.717 222.538 102.538C222.949 102.355 223.42 102.264 223.95 102.264C224.487 102.264 224.953 102.359 225.347 102.548C225.745 102.733 226.051 102.987 226.267 103.308C226.485 103.626 226.595 103.988 226.595 104.392C226.595 104.823 226.474 105.171 226.232 105.436C225.99 105.701 225.687 105.89 225.322 106.003V106.082C225.61 106.102 225.861 106.195 226.073 106.361C226.288 106.523 226.456 106.737 226.575 107.002C226.694 107.264 226.754 107.554 226.754 107.872C226.754 108.336 226.63 108.741 226.381 109.085C226.132 109.427 225.791 109.692 225.357 109.881C224.923 110.066 224.427 110.159 223.87 110.159C223.33 110.159 222.846 110.071 222.419 109.896C221.991 109.717 221.651 109.47 221.4 109.155C221.151 108.837 221.02 108.469 221.007 108.051ZM228.402 110V102.364H231.524C232.346 102.364 232.999 102.549 233.483 102.92C233.967 103.292 234.209 103.782 234.209 104.392C234.209 104.856 234.071 105.216 233.796 105.471C233.521 105.723 233.168 105.893 232.737 105.983C233.019 106.023 233.292 106.122 233.558 106.281C233.826 106.44 234.048 106.659 234.224 106.938C234.399 107.213 234.487 107.551 234.487 107.952C234.487 108.343 234.388 108.692 234.189 109.001C233.99 109.309 233.705 109.553 233.334 109.732C232.963 109.911 232.518 110 232.001 110H228.402ZM229.516 108.926H232.001C232.406 108.926 232.722 108.83 232.951 108.638C233.18 108.446 233.294 108.184 233.294 107.852C233.294 107.458 233.18 107.148 232.951 106.923C232.722 106.694 232.406 106.58 232.001 106.58H229.516V108.926ZM229.516 105.565H231.524C231.839 105.565 232.109 105.522 232.335 105.436C232.56 105.347 232.732 105.221 232.852 105.058C232.974 104.893 233.036 104.697 233.036 104.472C233.036 104.15 232.901 103.898 232.633 103.716C232.364 103.53 231.995 103.438 231.524 103.438H229.516V105.565ZM239.366 110.159C238.676 110.159 238.071 109.995 237.551 109.667C237.034 109.339 236.63 108.88 236.338 108.29C236.05 107.7 235.905 107.01 235.905 106.222C235.905 105.426 236.05 104.732 236.338 104.138C236.63 103.545 237.034 103.085 237.551 102.756C238.071 102.428 238.676 102.264 239.366 102.264C240.055 102.264 240.658 102.428 241.175 102.756C241.696 103.085 242.1 103.545 242.388 104.138C242.68 104.732 242.826 105.426 242.826 106.222C242.826 107.01 242.68 107.7 242.388 108.29C242.1 108.88 241.696 109.339 241.175 109.667C240.658 109.995 240.055 110.159 239.366 110.159ZM239.366 109.105C239.889 109.105 240.32 108.971 240.658 108.702C240.996 108.434 241.247 108.081 241.409 107.643C241.571 107.206 241.653 106.732 241.653 106.222C241.653 105.711 241.571 105.236 241.409 104.795C241.247 104.354 240.996 103.998 240.658 103.726C240.32 103.454 239.889 103.318 239.366 103.318C238.842 103.318 238.411 103.454 238.073 103.726C237.735 103.998 237.485 104.354 237.322 104.795C237.16 105.236 237.079 105.711 237.079 106.222C237.079 106.732 237.16 107.206 237.322 107.643C237.485 108.081 237.735 108.434 238.073 108.702C238.411 108.971 238.842 109.105 239.366 109.105ZM243.801 112.188V108.906H244.438C244.594 108.744 244.728 108.568 244.841 108.379C244.953 108.19 245.051 107.967 245.134 107.708C245.22 107.446 245.293 107.128 245.353 106.754C245.412 106.376 245.465 105.92 245.512 105.386L245.77 102.364H250.623V108.906H251.796V112.188H250.623V110H244.975V112.188H243.801ZM245.77 108.906H249.449V103.457H246.864L246.665 105.386C246.582 106.185 246.48 106.883 246.357 107.479C246.234 108.076 246.039 108.552 245.77 108.906ZM254.526 108.27L258.205 102.364H259.558V110H258.384V104.094L254.725 110H253.353V102.364H254.526V108.27ZM260.668 103.457V102.364H266.872V103.457H264.366V110H263.193V103.457H260.668ZM271.389 110.159C270.653 110.159 270.018 109.997 269.485 109.672C268.954 109.344 268.545 108.886 268.257 108.3C267.972 107.71 267.829 107.024 267.829 106.241C267.829 105.459 267.972 104.77 268.257 104.173C268.545 103.573 268.946 103.106 269.46 102.771C269.977 102.433 270.58 102.264 271.27 102.264C271.667 102.264 272.06 102.33 272.448 102.463C272.836 102.596 273.189 102.811 273.507 103.109C273.825 103.404 274.078 103.795 274.267 104.283C274.456 104.77 274.551 105.37 274.551 106.082V106.58H268.664V105.565H273.358C273.358 105.134 273.271 104.75 273.099 104.412C272.93 104.074 272.688 103.807 272.373 103.612C272.062 103.416 271.694 103.318 271.27 103.318C270.802 103.318 270.398 103.434 270.056 103.666C269.718 103.895 269.458 104.193 269.276 104.561C269.094 104.929 269.002 105.323 269.002 105.744V106.42C269.002 106.997 269.102 107.486 269.301 107.887C269.503 108.285 269.783 108.588 270.141 108.797C270.499 109.002 270.915 109.105 271.389 109.105C271.697 109.105 271.975 109.062 272.224 108.976C272.476 108.886 272.693 108.754 272.875 108.578C273.058 108.399 273.199 108.177 273.298 107.912L274.431 108.23C274.312 108.615 274.112 108.953 273.83 109.244C273.548 109.533 273.2 109.758 272.786 109.92C272.372 110.08 271.906 110.159 271.389 110.159ZM275.659 110V108.906H275.938C276.167 108.906 276.357 108.862 276.51 108.772C276.662 108.679 276.785 108.518 276.877 108.29C276.974 108.058 277.047 107.736 277.096 107.325C277.149 106.911 277.187 106.384 277.211 105.744L277.35 102.364H282.441V110H281.267V103.457H278.463L278.344 106.182C278.318 106.808 278.261 107.36 278.175 107.837C278.092 108.311 277.965 108.709 277.792 109.031C277.623 109.352 277.398 109.594 277.116 109.756C276.834 109.919 276.481 110 276.057 110H275.659ZM289.187 110V103.438H287.159C286.701 103.438 286.342 103.544 286.08 103.756C285.818 103.968 285.687 104.259 285.687 104.631C285.687 104.995 285.805 105.282 286.04 105.491C286.279 105.7 286.605 105.804 287.02 105.804H289.485V106.898H287.02C286.502 106.898 286.057 106.807 285.682 106.624C285.308 106.442 285.019 106.182 284.817 105.844C284.615 105.502 284.514 105.098 284.514 104.631C284.514 104.16 284.62 103.756 284.832 103.418C285.044 103.08 285.347 102.819 285.742 102.637C286.14 102.455 286.612 102.364 287.159 102.364H290.301V110H289.187ZM284.096 110L286.264 106.202H287.537L285.369 110H284.096Z" fill="#002737"/>
</svg>
