<svg width="100" height="100" viewBox="0 0 100 100" fill="none" xmlns="http://www.w3.org/2000/svg">
<mask id="mask0_537_2370" style="mask-type:alpha" maskUnits="userSpaceOnUse" x="15" y="62" width="11" height="11">
<rect x="15" y="62" width="10.5" height="10.5" fill="#D9D9D9"/>
</mask>
<g mask="url(#mask0_537_2370)">
<circle cx="25.5" cy="72.5" r="9.5" fill="#F9F9F9" stroke="#002737" stroke-width="2"/>
</g>
<mask id="mask1_537_2370" style="mask-type:alpha" maskUnits="userSpaceOnUse" x="55" y="62" width="11" height="11">
<rect width="10.5" height="10.5" transform="matrix(-1 0 0 1 66 62)" fill="#D9D9D9"/>
</mask>
<g mask="url(#mask1_537_2370)">
<circle cx="10.5" cy="10.5" r="9.5" transform="matrix(-1 0 0 1 66 62)" fill="#F9F9F9" stroke="#002737" stroke-width="2"/>
</g>
<circle cx="25.5" cy="72.5" r="6.5" fill="#F9F9F9" stroke="#002737" stroke-width="2"/>
<circle cx="40.5" cy="72.5" r="6.5" fill="#F9F9F9" stroke="#002737" stroke-width="2"/>
<circle cx="55.5" cy="72.5" r="6.5" fill="#F9F9F9" stroke="#002737" stroke-width="2"/>
<circle cx="25.5" cy="72.5" r="1" fill="#002737" stroke="#002737"/>
<circle cx="40.5" cy="72.5" r="1" fill="#002737" stroke="#002737"/>
<circle cx="55.5" cy="72.5" r="1" fill="#002737" stroke="#002737"/>
<rect x="1" y="22" width="95" height="38" fill="#F9F9F9" stroke="#002737" stroke-width="2"/>
<rect x="68" y="65" width="15" height="6" fill="#F9F9F9" stroke="#002737" stroke-width="2"/>
<rect x="7" y="65" width="6" height="6" fill="#F9F9F9" stroke="#002737" stroke-width="2"/>
<line x1="25.5" y1="63" x2="55.5" y2="63" stroke="#002737" stroke-width="2"/>
<line y1="71" x2="5" y2="71" stroke="#002737" stroke-width="2"/>
<line x1="99" y1="55" x2="99" y2="39" stroke="#002737" stroke-width="2"/>
<line x1="1" y1="68" x2="1" y2="62" stroke="#002737" stroke-width="2"/>
<line x1="4" y1="56" x2="93" y2="56" stroke="#002737" stroke-width="2" stroke-dasharray="2 2"/>
</svg>
