<svg width="100" height="100" viewBox="0 0 100 100" fill="none" xmlns="http://www.w3.org/2000/svg">
<line x1="53.92" y1="21.6794" x2="60.4732" y2="26.268" stroke="#002737" stroke-width="2"/>
<path d="M60 26H89C93.9706 26 98 30.0294 98 35V71H60V26Z" fill="#F9F9F9" stroke="#002737" stroke-width="2"/>
<path d="M89 34H74.5V65H92V37C92 37 92 36 91 35C90 34 89 34 89 34Z" stroke="#002737" stroke-width="2"/>
<path d="M89 34H68V48H92V37C92 37 92 36 91 35C90 34 89 34 89 34Z" stroke="#002737" stroke-width="2"/>
<rect x="15.7311" y="57.6546" width="17" height="1" transform="rotate(-10 15.7311 57.6546)" fill="#F9F9F9" stroke="#002737"/>
<mask id="mask0_537_2207" style="mask-type:alpha" maskUnits="userSpaceOnUse" x="2" y="61" width="21" height="11">
<rect x="2" y="61.5" width="21" height="10.5" fill="#D9D9D9"/>
</mask>
<g mask="url(#mask0_537_2207)">
<circle cx="12.5" cy="72" r="9.5" fill="#F9F9F9" stroke="#002737" stroke-width="2"/>
</g>
<circle cx="12.5" cy="72" r="6.5" fill="#F9F9F9" stroke="#002737" stroke-width="2"/>
<circle cx="12.5" cy="72" r="1" fill="#002737" stroke="#002737"/>
<line x1="92" y1="46.5" x2="92" y2="70.5" stroke="#002737" stroke-width="2"/>
<line x1="57" y1="31" x2="57" y2="71" stroke="#002737" stroke-width="2"/>
<line x1="54" y1="36" x2="54" y2="65" stroke="#002737" stroke-width="2"/>
<line x1="15.8264" y1="60.4881" x2="33.5529" y2="57.3624" stroke="#002737" stroke-width="2"/>
<line x1="89" y1="38" x2="89" y2="46" stroke="#002737" stroke-width="2"/>
<line y1="-1" x2="8" y2="-1" transform="matrix(0 1 1 0 96 58)" stroke="#002737" stroke-width="2"/>
<line x1="85" y1="21" x2="85" y2="27" stroke="#002737" stroke-width="2"/>
<rect x="38" y="65" width="54" height="6" fill="#F9F9F9" stroke="#002737" stroke-width="2"/>
<mask id="mask1_537_2207" style="mask-type:alpha" maskUnits="userSpaceOnUse" x="64" y="56" width="21" height="16">
<rect x="64" y="56" width="21" height="16" fill="#D9D9D9"/>
</mask>
<g mask="url(#mask1_537_2207)">
<path d="M84 72C84 76.2515 82.8672 80.0547 81.0886 82.7651C79.3043 85.4839 76.9537 87 74.5 87C72.0463 87 69.6957 85.4839 67.9114 82.7651C66.1328 80.0547 65 76.2515 65 72C65 67.7485 66.1328 63.9453 67.9114 61.2349C69.6957 58.5161 72.0463 57 74.5 57C76.9537 57 79.3043 58.5161 81.0886 61.2349C82.8672 63.9453 84 67.7485 84 72Z" fill="#F9F9F9" stroke="#002737" stroke-width="2"/>
</g>
<circle cx="74.5" cy="72" r="6.5" fill="#F9F9F9" stroke="#002737" stroke-width="2"/>
<circle cx="74.5" cy="72" r="1" fill="#002737" stroke="#002737"/>
<mask id="mask2_537_2207" style="mask-type:alpha" maskUnits="userSpaceOnUse" x="21" y="61" width="21" height="11">
<rect x="21" y="61.5" width="21" height="10.5" fill="#D9D9D9"/>
</mask>
<g mask="url(#mask2_537_2207)">
<circle cx="31.5" cy="72" r="9.5" fill="#F9F9F9" stroke="#002737" stroke-width="2"/>
</g>
<circle cx="31.5" cy="72" r="6.5" fill="#F9F9F9" stroke="#002737" stroke-width="2"/>
<circle cx="31.5" cy="72" r="1" fill="#002737" stroke="#002737"/>
</svg>
