<svg width="101" height="100" viewBox="0 0 101 100" fill="none" xmlns="http://www.w3.org/2000/svg">
<rect x="42" y="64" width="16" height="6" fill="#F9F9F9" stroke="#002737" stroke-width="2"/>
<rect x="78" y="27" width="4" height="13" fill="#F9F9F9" stroke="#002737" stroke-width="2"/>
<mask id="mask0_537_731" style="mask-type:alpha" maskUnits="userSpaceOnUse" x="7" y="60" width="21" height="11">
<rect x="7" y="60.5" width="21" height="10.5" fill="#D9D9D9"/>
</mask>
<g mask="url(#mask0_537_731)">
<circle cx="17.5" cy="71" r="9.5" fill="#F9F9F9" stroke="#002737" stroke-width="2"/>
</g>
<mask id="mask1_537_731" style="mask-type:alpha" maskUnits="userSpaceOnUse" x="22" y="60" width="21" height="11">
<rect x="22" y="60.5" width="21" height="10.5" fill="#D9D9D9"/>
</mask>
<g mask="url(#mask1_537_731)">
<circle cx="32.5" cy="71" r="9.5" fill="#F9F9F9" stroke="#002737" stroke-width="2"/>
</g>
<mask id="mask2_537_731" style="mask-type:alpha" maskUnits="userSpaceOnUse" x="57" y="60" width="21" height="11">
<rect x="57" y="60.5" width="21" height="10.5" fill="#D9D9D9"/>
</mask>
<g mask="url(#mask2_537_731)">
<circle cx="67.5" cy="71" r="9.5" fill="#F9F9F9" stroke="#002737" stroke-width="2"/>
</g>
<circle cx="17.5" cy="71" r="6.5" fill="#F9F9F9" stroke="#002737" stroke-width="2"/>
<circle cx="32.5" cy="71" r="6.5" fill="#F9F9F9" stroke="#002737" stroke-width="2"/>
<circle cx="67.5" cy="71" r="6.5" fill="#F9F9F9" stroke="#002737" stroke-width="2"/>
<circle cx="17.5" cy="71" r="1" fill="#002737" stroke="#002737"/>
<circle cx="32.5" cy="71" r="1" fill="#002737" stroke="#002737"/>
<circle cx="67.5" cy="71" r="1" fill="#002737" stroke="#002737"/>
<path d="M1 29.5H75V57.5H8.41421L1 50.0858V29.5Z" fill="#F9F9F9" stroke="#002737" stroke-width="2"/>
<path d="M8 61H88" stroke="#002737" stroke-width="2" stroke-linecap="square"/>
<path d="M8 36.5H68" stroke="#002737" stroke-width="2" stroke-linecap="square"/>
<path d="M80 68.5H100" stroke="#002737" stroke-width="2" stroke-linecap="square"/>
<path d="M80 68.5V61.5" stroke="#002737" stroke-width="2" stroke-linecap="square"/>
<path d="M75 32V22" stroke="#002737" stroke-width="2" stroke-linecap="square"/>
<path d="M75 22H82" stroke="#002737" stroke-width="2" stroke-linecap="square"/>
</svg>
