<svg width="40" height="41" viewBox="0 0 40 41" fill="none" xmlns="http://www.w3.org/2000/svg">
<path fill-rule="evenodd" clip-rule="evenodd" d="M20 40.5C31.0457 40.5 40 31.5457 40 20.5C40 9.4543 31.0457 0.5 20 0.5C8.9543 0.5 0 9.4543 0 20.5C0 31.5457 8.9543 40.5 20 40.5ZM27.6698 12.038C27.8034 12.0908 27.889 12.1464 27.9607 12.3575C27.9868 12.4325 28.0018 12.5936 27.9998 12.7547C27.9992 12.8255 27.9936 12.8922 27.9869 12.9716C27.9826 13.023 27.9779 13.0798 27.9737 13.1464C27.867 14.8686 24.6737 27.7214 24.6737 27.7214C24.6737 27.7214 24.4826 28.4742 23.7979 28.4992C23.5484 28.5075 23.2454 28.4575 22.8832 28.1464C22.1618 27.5269 20.4904 26.3408 18.9373 25.2686C18.4684 25.6603 17.5315 26.4714 16.5631 27.4408C15.1906 28.8131 15.3673 27.4408 15.3673 27.4408L15.7887 22.9603L15.7993 22.9658C15.8187 22.9214 15.8495 22.8825 15.8495 22.8825C15.8495 22.8825 23.9359 15.6964 24.1509 14.9408C24.1676 14.8825 24.1048 14.8547 24.0201 14.8797C23.4832 15.0769 14.1729 20.9547 13.1454 21.6047C13.0854 21.6436 12.917 21.6186 12.917 21.6186L8.40035 20.1464C8.40035 20.1464 7.86119 19.9269 8.03424 19.4325C8.07008 19.3297 8.1423 19.2408 8.35785 19.0908C9.35896 18.3936 26.8826 12.0936 26.8826 12.0936C26.8826 12.0936 27.3776 11.9297 27.6698 12.038Z" fill="#1984AF"/>
</svg>
