<svg width="40" height="40" viewBox="0 0 40 40" fill="none" xmlns="http://www.w3.org/2000/svg">
<circle cx="20" cy="20" r="19" stroke="white" stroke-width="2"/>
<path d="M27.9607 11.8575C27.889 11.6464 27.8034 11.5908 27.6698 11.538C27.3776 11.4297 26.8826 11.5936 26.8826 11.5936C26.8826 11.5936 9.35897 17.8936 8.35785 18.5908C8.1423 18.7408 8.07008 18.8297 8.03424 18.9325C7.86119 19.4269 8.40035 19.6464 8.40035 19.6464L12.917 21.1186C12.917 21.1186 13.0854 21.1436 13.1454 21.1047C14.1729 20.4547 23.4832 14.5769 24.0201 14.3797C24.1048 14.3547 24.1676 14.3825 24.1509 14.4408C23.9359 15.1964 15.8495 22.3825 15.8495 22.3825C15.8495 22.3825 15.8187 22.4214 15.7993 22.4658L15.7887 22.4603L15.3673 26.9408C15.3673 26.9408 15.1906 28.3131 16.5631 26.9408C17.5315 25.9714 18.4684 25.1603 18.9373 24.7686C20.4904 25.8408 22.1618 27.0269 22.8832 27.6464C23.2454 27.9575 23.5484 28.0075 23.7979 27.9992C24.4826 27.9742 24.6737 27.2214 24.6737 27.2214C24.6737 27.2214 27.867 14.3686 27.9737 12.6464C27.9843 12.4769 27.9987 12.3714 27.9998 12.2547C28.0018 12.0936 27.9868 11.9325 27.9607 11.8575Z" fill="white"/>
</svg>
