<svg width="40" height="40" viewBox="0 0 40 40" fill="none" xmlns="http://www.w3.org/2000/svg">
<circle cx="20" cy="20" r="19" stroke="white" stroke-width="2"/>
<path fill-rule="evenodd" clip-rule="evenodd" d="M25.3109 21.5465C25.0497 21.4159 23.7652 20.784 23.5257 20.6968C23.2861 20.6098 23.1121 20.5661 22.9377 20.8276C22.7639 21.0889 22.263 21.6774 22.1107 21.8518C21.9583 22.0259 21.8059 22.0479 21.5446 21.917C21.2833 21.7863 20.4416 21.5106 19.4436 20.6206C18.6669 19.9283 18.1426 19.0729 17.9903 18.8114C17.8379 18.5499 17.9739 18.4085 18.1048 18.2784C18.2222 18.1614 18.3661 17.9734 18.4967 17.8208C18.6273 17.6684 18.6708 17.5592 18.7577 17.3851C18.8451 17.2108 18.8014 17.0582 18.736 16.9275C18.6708 16.7966 18.1482 15.5112 17.9307 14.9882C17.7185 14.4791 17.5033 14.5479 17.3427 14.5399C17.1905 14.5323 17.0162 14.5308 16.8421 14.5308C16.668 14.5308 16.385 14.596 16.1454 14.8575C15.9059 15.1191 15.231 15.7508 15.231 17.0364C15.231 18.3218 16.1672 19.5637 16.2978 19.7381C16.4284 19.9124 18.1399 22.5506 20.7608 23.682C21.3842 23.951 21.8709 24.1117 22.2503 24.2321C22.8762 24.4309 23.4458 24.4028 23.8959 24.3356C24.3977 24.2607 25.4416 23.7037 25.6594 23.0934C25.8772 22.4835 25.8772 21.9607 25.8118 21.8518C25.7463 21.7429 25.5722 21.6774 25.3109 21.5465ZM20.544 28.0534H20.5403C18.9809 28.0529 17.4516 27.6341 16.1171 26.8424L15.7997 26.6539L12.5105 27.5166L13.3886 24.3107L13.1817 23.9821C12.312 22.5987 11.8524 21 11.8531 19.3584C11.8551 14.5682 15.7538 10.671 20.5474 10.671C22.8686 10.672 25.0509 11.5769 26.6916 13.2188C28.3323 14.8612 29.2353 17.044 29.2348 19.3655C29.2326 24.1561 25.3339 28.0534 20.544 28.0534ZM27.9403 11.9713C25.9663 9.99533 23.3409 8.90673 20.544 8.90551C14.7804 8.90551 10.0899 13.5944 10.0877 19.3579C10.0869 21.2 10.5685 22.9982 11.4834 24.5835L10 30L15.5428 28.5464C17.0702 29.3793 18.7897 29.8181 20.5395 29.8188H20.544C20.5437 29.8188 20.5444 29.8188 20.544 29.8188C26.3065 29.8188 30.9976 25.1295 31 19.3662C31.001 16.5732 29.9146 13.9467 27.9403 11.9713Z" fill="white"/>
</svg>
