<svg width="40" height="41" viewBox="0 0 40 41" fill="none" xmlns="http://www.w3.org/2000/svg">
<path fill-rule="evenodd" clip-rule="evenodd" d="M20 40.5C31.0457 40.5 40 31.5457 40 20.5C40 9.4543 31.0457 0.5 20 0.5C8.9543 0.5 0 9.4543 0 20.5C0 31.5457 8.9543 40.5 20 40.5ZM23.5257 21.1968C23.7652 21.284 25.0497 21.9159 25.3109 22.0465C25.362 22.0721 25.4096 22.0951 25.4538 22.1165C25.6361 22.2046 25.7591 22.2641 25.8118 22.3518C25.8772 22.4607 25.8772 22.9835 25.6594 23.5934C25.4416 24.2037 24.3977 24.7607 23.8959 24.8356C23.4458 24.9028 22.8762 24.9309 22.2503 24.7321C21.8709 24.6117 21.3842 24.451 20.7608 24.182C18.3119 23.1249 16.657 20.7522 16.3437 20.3031C16.3218 20.2716 16.3064 20.2495 16.2978 20.2381L16.2955 20.2351C16.1567 20.0498 15.231 18.8146 15.231 17.5364C15.231 16.3332 15.8221 15.7028 16.0943 15.4125C16.1129 15.3926 16.1301 15.3743 16.1454 15.3575C16.385 15.096 16.668 15.0308 16.8421 15.0308C17.0162 15.0308 17.1905 15.0323 17.3427 15.0399C17.3615 15.0408 17.381 15.0407 17.4012 15.0406C17.5537 15.0397 17.7433 15.0386 17.9307 15.4882C18.0017 15.6589 18.1051 15.9107 18.2146 16.1772C18.4406 16.7272 18.6921 17.3393 18.736 17.4275C18.8014 17.5582 18.8451 17.7108 18.7577 17.8851C18.7447 17.9113 18.7326 17.936 18.721 17.9596C18.6558 18.093 18.6077 18.1913 18.4967 18.3207C18.4533 18.3714 18.4085 18.426 18.3637 18.4806C18.2735 18.5904 18.1832 18.7002 18.1048 18.7784C17.9739 18.9085 17.8379 19.0499 17.9903 19.3114C18.1426 19.5729 18.6669 20.4283 19.4436 21.1206C20.2788 21.8654 21.0046 22.18 21.3722 22.3394C21.4439 22.3705 21.502 22.3957 21.5446 22.417C21.8059 22.5479 21.9583 22.5259 22.1107 22.3518C22.263 22.1774 22.7639 21.5889 22.9377 21.3276C23.1121 21.0661 23.2861 21.1098 23.5257 21.1968ZM20.5403 28.5534H20.544C25.3339 28.5534 29.2326 24.6561 29.2348 19.8655C29.2353 17.544 28.3323 15.3612 26.6916 13.7188C25.0509 12.0769 22.8686 11.172 20.5474 11.171C15.7538 11.171 11.8551 15.0682 11.8531 19.8584C11.8524 21.5 12.312 23.0987 13.1817 24.4821L13.3886 24.8107L12.5105 28.0166L15.7997 27.1539L16.1171 27.3424C17.4516 28.1341 18.9809 28.5529 20.5403 28.5534ZM20.544 9.40551C23.3409 9.40673 25.9663 10.4953 27.9403 12.4713C29.9146 14.4467 31.001 17.0732 31 19.8662C30.9976 25.6295 26.3065 30.3188 20.544 30.3188H20.5395C18.7897 30.3181 17.0702 29.8793 15.5428 29.0464L10 30.5L11.4834 25.0835C10.5685 23.4982 10.0869 21.7 10.0877 19.8579C10.0899 14.0944 14.7804 9.40551 20.544 9.40551Z" fill="#25D366"/>
</svg>
