<svg width="35" height="35" viewBox="0 0 35 35" fill="none" xmlns="http://www.w3.org/2000/svg">
<path d="M12.25 22.75L22.75 12.25M13.0578 13.0511L13.0371 13.0303M21.9689 22.0539L21.9483 22.0331M13.9649 5.89575L11.1389 5.27651C10.6874 5.17757 10.2348 5.43886 10.0947 5.87937L9.21795 8.63642C9.12995 8.91314 8.91314 9.12995 8.63642 9.21795L5.87937 10.0947C5.43886 10.2348 5.17757 10.6874 5.27651 11.1389L5.89575 13.9649C5.9579 14.2486 5.87854 14.5448 5.68289 14.7593L3.73359 16.8971C3.42214 17.2387 3.42214 17.7613 3.73359 18.1029L5.68289 20.2407C5.87854 20.4552 5.9579 20.7514 5.89575 21.0351L5.27651 23.8611C5.17757 24.3126 5.43886 24.7652 5.87937 24.9053L8.63642 25.782C8.91314 25.87 9.12995 26.0869 9.21795 26.3636L10.0947 29.1206C10.2348 29.5611 10.6874 29.8224 11.1389 29.7235L13.9649 29.1042C14.2486 29.0421 14.5448 29.1215 14.7593 29.3171L16.8971 31.2664C17.2387 31.5779 17.7613 31.5779 18.1029 31.2664L20.2407 29.3171C20.4552 29.1215 20.7514 29.0421 21.0351 29.1042L23.8611 29.7235C24.3126 29.8224 24.7652 29.5611 24.9053 29.1206L25.782 26.3636C25.87 26.0869 26.0869 25.87 26.3636 25.782L29.1206 24.9053C29.5611 24.7652 29.8224 24.3126 29.7235 23.8611L29.1042 21.0351C29.0421 20.7514 29.1215 20.4552 29.3171 20.2407L31.2664 18.1029C31.5779 17.7613 31.5779 17.2387 31.2664 16.8971L29.3171 14.7593C29.1215 14.5448 29.0421 14.2486 29.1042 13.9649L29.7235 11.1389C29.8224 10.6874 29.5611 10.2348 29.1206 10.0947L26.3636 9.21795C26.0869 9.12995 25.87 8.91314 25.782 8.63642L24.9053 5.87937C24.7652 5.43886 24.3126 5.17757 23.8611 5.27651L21.0351 5.89575C20.7514 5.9579 20.4552 5.87854 20.2407 5.68289L18.1029 3.73359C17.7613 3.42214 17.2387 3.42214 16.8971 3.73359L14.7593 5.68289C14.5448 5.87854 14.2486 5.9579 13.9649 5.89575Z" stroke="#1984AF" stroke-width="2" stroke-linecap="round"/>
</svg>
