<svg width="35" height="35" viewBox="0 0 35 35" fill="none" xmlns="http://www.w3.org/2000/svg">
<path d="M21.8753 3.5V8.75C21.8753 9.7165 22.6588 10.5 23.6253 10.5H28.8753M12.2503 10.5H15.7503M12.2503 15.75H22.7503M12.2503 21H22.7503M26.2503 6.125C25.4714 5.42812 24.6632 4.60159 24.153 4.06478C23.8135 3.70757 23.3444 3.5 22.8516 3.5H9.62489C7.6919 3.5 6.1249 5.06699 6.12489 6.99998L6.12476 27.9999C6.12474 29.9329 7.69174 31.4999 9.62474 31.4999L25.3748 31.5C27.3078 31.5 28.8748 29.933 28.8748 28.0001L28.8753 9.44684C28.8753 8.99936 28.7046 8.56922 28.394 8.24707C27.8197 7.65136 26.8607 6.67117 26.2503 6.125Z" stroke="#1984AF" stroke-width="2" stroke-linecap="round" stroke-linejoin="round"/>
</svg>
