<svg width="35" height="35" viewBox="0 0 35 35" fill="none" xmlns="http://www.w3.org/2000/svg">
<path d="M28.3889 3.49994C30.1071 3.49994 31.5 4.87375 31.5 6.56843L31.5 11.8065C31.5 13.5012 30.1071 14.875 28.3889 14.875H23.7222C22.004 14.875 20.6111 13.5012 20.6111 11.8065L20.6111 6.56843C20.6111 4.87375 22.004 3.49994 23.7222 3.49994L28.3889 3.49994Z" stroke="#1984AF" stroke-width="2" stroke-linecap="round" stroke-linejoin="round"/>
<path d="M6.61111 3.49994C4.89289 3.49994 3.5 4.87375 3.5 6.56843L3.50001 11.8065C3.50001 13.5012 4.8929 14.875 6.61112 14.875H11.2778C12.996 14.875 14.3889 13.5012 14.3889 11.8065L14.3889 6.56843C14.3889 4.87375 12.996 3.49994 11.2778 3.49994L6.61111 3.49994Z" stroke="#1984AF" stroke-width="2" stroke-linecap="round" stroke-linejoin="round"/>
<path d="M28.3889 20.125C30.1071 20.125 31.5 21.4988 31.5 23.1935V28.4315C31.5 30.1262 30.1071 31.5 28.3889 31.5H23.7222C22.004 31.5 20.6111 30.1262 20.6111 28.4315L20.6111 23.1935C20.6111 21.4988 22.004 20.125 23.7222 20.125H28.3889Z" stroke="#1984AF" stroke-width="2" stroke-linecap="round" stroke-linejoin="round"/>
<path d="M6.61112 20.125C4.8929 20.125 3.50001 21.4988 3.50001 23.1935L3.50002 28.4315C3.50002 30.1262 4.89291 31.5 6.61113 31.5H11.2778C12.996 31.5 14.3889 30.1262 14.3889 28.4315L14.3889 23.1935C14.3889 21.4988 12.996 20.125 11.2778 20.125H6.61112Z" stroke="#1984AF" stroke-width="2" stroke-linecap="round" stroke-linejoin="round"/>
</svg>
